<svg width="292" height="159" viewBox="0 0 292 159" fill="none" xmlns="http://www.w3.org/2000/svg">
<path d="M106.333 37.4L73 75L72.6 67.9334L72.2 61H62.8667H53.6667V79V97L27 127C12.3333 143.4 0.333313 157.267 0.333313 157.667C0.333313 158.067 6.59998 158.333 14.3333 158.333H28.2L83.9333 95.5334L139.667 32.7334L143.667 37.2667C145.8 39.6667 170.867 67.9334 199.4 100.067L251 158.333H265.133C276.067 158.333 278.867 157.933 278.067 156.6C277.4 155.4 201.933 69.9334 140.467 0.733387C140.067 0.200053 124.733 16.7334 106.333 37.4Z" fill="#295790"/>
<path d="M160.467 8.46673C172.867 23.0001 240.733 98.8667 241.133 98.7334C243 97.6667 292.067 41.6667 291.267 41.4001C290.733 41.1334 278.333 43.6667 263.667 46.8667L237.133 52.7334L199 30.0667C154.6 3.40007 157.8 5.26673 160.467 8.46673Z" fill="#D2733B"/>
</svg>
